<?xml version="1.0" standalone="no"?><!DOCTYPE svg PUBLIC "-//W3C//DTD SVG 1.1//EN" "http://www.w3.org/Graphics/SVG/1.1/DTD/svg11.dtd"><svg t="1617867437230" class="icon" viewBox="0 0 1024 1024" version="1.1" xmlns="http://www.w3.org/2000/svg" p-id="2025" xmlns:xlink="http://www.w3.org/1999/xlink" width="200" height="200"><defs><style type="text/css"></style></defs><path d="M504.925 462.624c-16.189 0-32.366-3.091-45.32-9.269L207.119 332.817c-19.422-6.183-29.136-18.55-29.136-33.996 0-15.452 9.714-27.819 25.896-37.093l255.726-123.624c12.954-6.182 32.37-9.274 48.56-9.274 16.182 0 32.366 3.092 45.315 9.274L805.97 255.55c16.189 9.27 25.897 21.636 25.897 37.088 0 15.452-9.709 27.813-25.897 37.088l-255.725 123.63c-9.714 6.177-29.132 9.268-45.32 9.268zM453.13 895.321c-9.709 0-16.182-3.091-25.891-6.188L203.88 777.881c-25.897-12.371-48.555-40.185-48.555-61.815V410.084c0-21.63 16.188-37.093 38.845-37.093 6.475 0 16.184 3.091 22.657 6.183l226.594 111.273c25.897 12.35 48.555 40.174 48.555 61.81v302.885c0 24.722-19.417 40.18-38.845 40.18z m119.776 0c-22.662 0-38.846-15.457-38.846-37.087v-302.89c0-24.723 19.418-49.449 48.554-61.816L809.21 379.174c6.475-3.092 16.183-6.183 22.657-6.183 22.657 0 38.846 15.462 38.846 37.093v302.89c0 24.721-19.423 49.442-48.555 61.814L595.564 889.133c-6.48 3.097-12.948 6.188-22.657 6.188z" p-id="2026" fill="#ffffff"></path></svg>