<?xml version="1.0" standalone="no"?><!DOCTYPE svg PUBLIC "-//W3C//DTD SVG 1.1//EN" "http://www.w3.org/Graphics/SVG/1.1/DTD/svg11.dtd"><svg t="1611555398747" class="icon" viewBox="0 0 1024 1024" version="1.1" xmlns="http://www.w3.org/2000/svg" p-id="52948" width="18" height="18" xmlns:xlink="http://www.w3.org/1999/xlink"><defs><style type="text/css"></style></defs><path d="M287 960c-17 0.2-31-13.5-31.2-30.6V738.8c-7.6 5.1-16.3 8.8-25 11.3h-1.3c-11.2 3.8-23.7 5-35 5-68.3-0.2-123.5-55.4-123.7-123.7 0-68.7 56.2-123.7 123.7-123.7 12.5 0 25 2.5 37.5 6.3 1.3 0 2.5 1.2 3.8 1.2 6.2 2.5 12.5 5 17.5 7.5l2.5 1.3V294c-0.2-17 13.5-31 30.5-31.2H490.7l-3.8-7.5c-6.4-9.5-11-20.1-13.8-31.3v-1.2c-19-65.9 18.8-134.7 84.6-153.8 11.2-3.3 22.7-4.9 34.4-5 68.7 0 123.7 56.2 123.7 123.7 0 12.5-2.5 25-6.3 37.5 0 1.3-1.2 2.5-1.2 3.8-2.5 6.2-5 12.5-7.5 17.5l-6.3 15H922c17.1-0.1 31 13.5 31.1 30.6v280.5c0 9.9-5.1 20-13.8 26.2-8.7 6.3-20 6.3-30 2.5l-53.8-23.8c-1.2 0-1.2-1.2-2.5-1.2-2.5-1.3-6.2-3.8-9.9-5h-1.3c-6.2-2.5-12.5-2.5-18.7-2.5-33.8 0-61.2 27.4-61.2 61.2 0 33.8 27.5 61.3 61.4 61.3 5.9 0 11.7-0.9 17.4-2.5 6.2-1.3 11.2-5.1 16.2-7.5 1.3-1.2 2.5-1.2 3.8-2.5l47.5-22.5c9.6-4.6 20.8-4.2 30 1.2 9.1 5.7 14.7 15.6 15 26.3v244.9c0.2 17-13.5 31.1-30.5 31.3H287z" fill="#ffffff" p-id="52949"></path></svg>