<?xml version="1.0" standalone="no"?><!DOCTYPE svg PUBLIC "-//W3C//DTD SVG 1.1//EN" "http://www.w3.org/Graphics/SVG/1.1/DTD/svg11.dtd"><svg t="1611555334218" class="icon" viewBox="0 0 1024 1024" version="1.1" xmlns="http://www.w3.org/2000/svg" p-id="46918" width="18" height="18" xmlns:xlink="http://www.w3.org/1999/xlink"><defs><style type="text/css"></style></defs><path d="M510.417455 23.086545C241.291636 23.086545 23.086545 241.245091 23.086545 510.417455c0 269.125818 218.205091 487.330909 487.33091 487.330909 269.125818 0 487.330909-218.205091 487.330909-487.330909 0-269.172364-218.205091-487.330909-487.330909-487.33091z m227.048727 421.608728L407.784727 783.825455a19.130182 19.130182 0 0 1-24.157091 2.746181 20.247273 20.247273 0 0 1-7.819636-23.645091l68.142545-192.60509H297.099636a19.409455 19.409455 0 0 1-17.92-12.334546 20.433455 20.433455 0 0 1 4.189091-21.783273l290.909091-299.240727a18.944 18.944 0 0 1 23.04-3.351273 20.154182 20.154182 0 0 1 9.588364 21.783273l-33.512727 155.322182h150.341818c7.866182 0 14.941091 4.840727 17.92 12.288a20.340364 20.340364 0 0 1-4.189091 21.690182z" p-id="46919" fill="#ffffff"></path></svg>